<svg width="40" height="40" viewBox="0 0 40 40" fill="none" xmlns="http://www.w3.org/2000/svg">
<rect y="40" width="40" height="40" rx="20" transform="rotate(-90 0 40)" fill="#F9D9DA"/>
<path fill-rule="evenodd" clip-rule="evenodd" d="M24.021 20C24.021 20.1185 23.9739 20.2322 23.8901 20.316C23.8063 20.3998 23.6927 20.4468 23.5742 20.4468L15.5316 20.4468C15.4131 20.4468 15.2994 20.3998 15.2157 20.316C15.1319 20.2322 15.0848 20.1185 15.0848 20C15.0848 19.8815 15.1319 19.7679 15.2157 19.6841C15.2994 19.6003 15.4131 19.5532 15.5316 19.5532L23.5742 19.5532C23.6927 19.5532 23.8063 19.6003 23.8901 19.6841C23.9739 19.7679 24.021 19.8815 24.021 20Z" fill="#07484A"/>
<path fill-rule="evenodd" clip-rule="evenodd" d="M24.784 19.6837C24.8256 19.7252 24.8586 19.7745 24.8812 19.8288C24.9037 19.8831 24.9153 19.9413 24.9153 20.0001C24.9153 20.0588 24.9037 20.117 24.8812 20.1713C24.8586 20.2256 24.8256 20.2749 24.784 20.3164L22.1032 22.9973C22.0193 23.0812 21.9055 23.1283 21.7868 23.1283C21.6682 23.1283 21.5544 23.0812 21.4705 22.9973C21.3866 22.9134 21.3394 22.7996 21.3394 22.6809C21.3394 22.5623 21.3866 22.4485 21.4705 22.3646L23.8359 20.0001L21.4705 17.6355C21.3866 17.5516 21.3394 17.4379 21.3394 17.3192C21.3394 17.2006 21.3866 17.0868 21.4705 17.0029C21.5544 16.919 21.6682 16.8718 21.7868 16.8718C21.9055 16.8718 22.0193 16.919 22.1032 17.0029L24.784 19.6837Z" fill="#07484A"/>
</svg>
