<svg width="40" height="40" viewBox="0 0 40 40" fill="none" xmlns="http://www.w3.org/2000/svg">
<rect x="40" width="40" height="40" rx="20" transform="rotate(90 40 0)" fill="#E0EFF6"/>
<path fill-rule="evenodd" clip-rule="evenodd" d="M15.979 20C15.979 19.8815 16.0261 19.7678 16.1099 19.684C16.1937 19.6002 16.3073 19.5532 16.4258 19.5532L24.4684 19.5532C24.5869 19.5532 24.7006 19.6002 24.7843 19.684C24.8681 19.7678 24.9152 19.8815 24.9152 20C24.9152 20.1185 24.8681 20.2321 24.7843 20.3159C24.7006 20.3997 24.5869 20.4468 24.4684 20.4468L16.4258 20.4468C16.3073 20.4468 16.1937 20.3997 16.1099 20.3159C16.0261 20.2321 15.979 20.1185 15.979 20Z" fill="#07484A"/>
<path fill-rule="evenodd" clip-rule="evenodd" d="M15.216 20.3163C15.1744 20.2748 15.1414 20.2255 15.1188 20.1712C15.0963 20.1169 15.0847 20.0587 15.0847 19.9999C15.0847 19.9412 15.0963 19.883 15.1188 19.8287C15.1414 19.7744 15.1744 19.7251 15.216 19.6836L17.8968 17.0027C17.9807 16.9188 18.0945 16.8717 18.2132 16.8717C18.3318 16.8717 18.4456 16.9188 18.5295 17.0027C18.6134 17.0866 18.6606 17.2004 18.6606 17.3191C18.6606 17.4377 18.6134 17.5515 18.5295 17.6354L16.1641 19.9999L18.5295 22.3645C18.6134 22.4484 18.6606 22.5621 18.6606 22.6808C18.6606 22.7994 18.6134 22.9132 18.5295 22.9971C18.4456 23.081 18.3318 23.1282 18.2132 23.1282C18.0945 23.1282 17.9807 23.081 17.8968 22.9971L15.216 20.3163Z" fill="#07484A"/>
</svg>
